<?xml version="1.0" encoding="UTF-8"?>
<svg id="Capa_1" data-name="Capa 1" xmlns="http://www.w3.org/2000/svg" viewBox="0 0 72.9 38.62">
  <defs>
    <style>
      .cls-1 {
        fill: #fff;
      }
    </style>
  </defs>
  <path class="cls-1" d="M35.68,35.91c-.41,.41-1.08,.41-1.5,0-.2-.21-.31-.48-.31-.75v-3.95c0-.49-.4-.89-.89-.89-.16,0-.3,.04-.43,.11h0c-.19,.12-.39,.23-.59,.33l-.78,.38c-2.05,.88-4.32,1.37-6.7,1.37H12.16c-2.34,0-4.23-1.9-4.23-4.23V7.08c0-2.34,1.89-4.23,4.23-4.23h11.4c2.49,0,4.84,.61,6.9,1.7h0c2.34,1.21,3.93,3.65,3.93,6.46,0,2.43-1.19,4.58-3.02,5.9h0c1.85,.72,3.35,2.15,4.16,3.95l7.93-15.32c.93-1.86,2.85-3.13,5.07-3.13s4.13,1.27,5.06,3.13h0l10.83,20.9h0c.35,.61,.55,1.33,.55,2.08,0,2.34-1.9,4.23-4.24,4.23-1.71,0-3.19-1.02-3.86-2.49h0c-.34-.81-1.14-1.37-2.07-1.37h-11.74c-.23,0-.45,.09-.63,.26l-6.76,6.76Z"/>
</svg>