<?xml version="1.0" encoding="UTF-8"?>
<svg id="Capa_1" data-name="Capa 1" xmlns="http://www.w3.org/2000/svg" viewBox="0 0 95.29 38.62">
  <defs>
    <style>
      .cls-1, .cls-2 {
        fill: #7b529d;
      }

      .cls-2 {
        font-family: AvenirLTStd-Medium, 'Avenir LT Std';
        font-size: 4.99px;
      }

      .cls-3 {
        fill: #26214d;
      }
    </style>
  </defs>
  <text class="cls-2" transform="translate(35.18 31.04)"><tspan x="0" y="0">Open Personal Assistant</tspan></text>
  <g>
    <path class="cls-3" d="M34.07,16.8c0-1.51,.24-2.84,.71-4,.47-1.16,1.12-2.13,1.94-2.92,.82-.78,1.79-1.38,2.9-1.78,1.11-.41,2.32-.61,3.61-.61s2.5,.2,3.61,.61c1.11,.41,2.08,1,2.92,1.78,.83,.78,1.48,1.76,1.96,2.92,.47,1.16,.71,2.5,.71,4s-.23,2.85-.7,4.02c-.46,1.17-1.11,2.15-1.93,2.93-.82,.78-1.79,1.38-2.92,1.78-1.12,.41-2.34,.61-3.66,.61s-2.53-.21-3.66-.62c-1.12-.42-2.09-1.02-2.9-1.81-.81-.79-1.45-1.77-1.92-2.93-.46-1.16-.7-2.49-.7-3.97Zm5.22,0c0,1.76,.36,3.08,1.07,3.95,.72,.87,1.67,1.31,2.87,1.31s2.19-.44,2.9-1.31c.72-.87,1.07-2.19,1.07-3.95s-.35-3.05-1.06-3.92c-.71-.87-1.67-1.31-2.89-1.31s-2.16,.43-2.89,1.29c-.73,.86-1.09,2.17-1.09,3.93Z"/>
    <path class="cls-3" d="M61.92,25.5c-.21,.06-.55,.12-1,.17-.45,.06-.9,.09-1.35,.09s-.84-.03-1.18-.1c-.34-.07-.62-.19-.86-.36-.23-.17-.41-.42-.52-.73-.12-.31-.17-.72-.17-1.22V9.69c0-.41,.11-.72,.33-.94,.22-.22,.53-.4,.91-.54,.66-.23,1.41-.4,2.25-.51,.84-.11,1.69-.16,2.54-.16,2.67,0,4.71,.57,6.12,1.71,1.41,1.14,2.12,2.69,2.12,4.64,0,.95-.15,1.8-.45,2.57-.3,.76-.75,1.42-1.33,1.97-.59,.55-1.33,.98-2.23,1.28-.9,.3-1.94,.45-3.12,.45h-2.06v5.34Zm1.51-9.31c.81,0,1.44-.19,1.87-.57s.65-.95,.65-1.73-.23-1.3-.68-1.7c-.45-.4-1.12-.59-1.99-.59-.31,0-.57,0-.77,.01-.2,0-.41,.03-.62,.07v4.5h1.54Z"/>
    <path class="cls-3" d="M78.08,8.56c.33-.19,.83-.38,1.49-.55,.67-.17,1.34-.26,2.02-.26,.97,0,1.82,.14,2.57,.42,.74,.28,1.22,.72,1.44,1.32,.35,1.01,.73,2.18,1.13,3.51,.41,1.33,.81,2.71,1.22,4.13,.41,1.42,.8,2.82,1.19,4.21,.39,1.38,.73,2.61,1.02,3.67-.23,.27-.58,.49-1.04,.65s-1.02,.25-1.65,.25c-.46,0-.86-.04-1.17-.12-.32-.08-.58-.19-.78-.35-.2-.15-.37-.36-.49-.61-.13-.25-.24-.54-.33-.87l-.52-2h-5.25c-.15,.58-.31,1.18-.46,1.8-.15,.62-.31,1.22-.46,1.8-.27,.1-.56,.18-.86,.25-.3,.07-.66,.1-1.09,.1-.99,0-1.72-.17-2.19-.51-.47-.34-.71-.81-.71-1.41,0-.27,.04-.54,.12-.81,.08-.27,.16-.59,.26-.96,.14-.52,.32-1.17,.57-1.94,.24-.77,.51-1.61,.8-2.51s.6-1.82,.93-2.77c.33-.95,.64-1.84,.93-2.68,.29-.84,.56-1.59,.8-2.25,.24-.66,.43-1.16,.57-1.51Zm3.48,3.74c-.27,.81-.58,1.72-.91,2.71-.34,1-.64,2.01-.91,3.03h3.6c-.27-1.04-.55-2.06-.83-3.06s-.54-1.89-.77-2.68h-.17Z"/>
  </g>
  <g>
    <g>
      <path class="cls-1" d="M18.44,26.82c-2.46-.02-4.53-.27-6.5-1.09-1.79-.74-3.29-1.85-4.11-3.67-.25-.55-.35-1.18-.54-1.76-.04-.14-.12-.31-.24-.36-.89-.4-1.09-1.07-.94-1.99,.18-1.12,.42-2.21,.82-3.27,.17-.45,.45-.75,.93-.81,.6-.07,.94-.4,1.27-.91,1.22-1.9,2.92-3.25,5.05-4.02,.23-.08,.31-.21,.32-.44,0-.16,.02-.32,.05-.48,.08-.46,.36-.78,.82-.86,.55-.1,1.11-.16,1.67-.22,.17-.02,.26-.06,.29-.25,.06-.39,.17-.77,.22-1.16,.02-.11-.05-.26-.13-.34-.51-.45-.57-1.15-.12-1.61,.42-.44,1.12-.44,1.54,0,.45,.46,.4,1.17-.13,1.6-.15,.12-.16,.22-.13,.38,.08,.35,.16,.71,.21,1.06,.03,.23,.13,.31,.36,.33,.51,.04,1.02,.11,1.52,.2,.62,.11,.92,.4,.93,1.03,.01,.51,.22,.71,.67,.89,2.15,.83,3.78,2.29,4.98,4.25,.14,.23,.28,.39,.55,.41,.96,.07,1.38,.67,1.63,1.53,.31,1.07,.56,2.14,.64,3.25,.04,.53-.15,.93-.63,1.19-.11,.06-.21,.15-.33,.2-.18,.09-.25,.22-.28,.42-.34,2.24-1.63,3.81-3.56,4.89-1.58,.88-3.29,1.3-5.08,1.49-.71,.07-1.42,.1-1.78,.12Zm-.38-2.94c.76-.06,1.53-.09,2.29-.18,1.4-.17,2.76-.53,3.98-1.26,1.18-.71,2.01-1.68,1.98-3.13-.05-2.87-1.2-5.21-3.64-6.79-2.06-1.33-4.34-1.54-6.7-1.03-3.97,.86-6.11,4.4-6.13,7.76,0,.85,.26,1.61,.83,2.25,.53,.59,1.18,1,1.89,1.32,1.74,.78,3.59,1.01,5.48,1.06Z"/>
      <path class="cls-1" d="M15.54,17.52c0,.78-.15,1.31-.51,1.77-.56,.72-1.44,.73-2.02,.04-.72-.86-.72-2.4,0-3.26,.57-.68,1.45-.68,2,.01,.38,.47,.53,1.03,.53,1.44Z"/>
      <path class="cls-1" d="M20.63,17.71c0-.59,.14-1.14,.51-1.61,.55-.71,1.45-.72,2.02-.03,.7,.86,.72,2.34,.03,3.21-.59,.75-1.51,.74-2.08-.02-.31-.41-.48-.96-.48-1.56Z"/>
    </g>
    <ellipse class="cls-1" cx="18.08" cy="29.58" rx="6.66" ry=".81"/>
  </g>
</svg>