<?xml version="1.0" encoding="UTF-8"?>
<svg id="Capa_1" data-name="Capa 1" xmlns="http://www.w3.org/2000/svg" viewBox="0 0 624.13 31.13">
  <defs>
    <style>
      .cls-1 {
        fill: #fff;
      }

      .cls-2 {
        fill: #27224f;
        font-family: Aller, Aller;
        font-size: 27.32px;
      }

      .cls-3 {
        fill: #7b529d;
      }
    </style>
  </defs>
  <rect class="cls-1" y="-.09" width="624.13" height="31.05" rx="3.23" ry="3.23"/>
  <g>
    <text class="cls-2" transform="translate(304.17 24.42)"><tspan x="0" y="0">Hola</tspan></text>
    <g>
      <path class="cls-3" d="M263.66,19.6h4.33c.26,0,.46-.21,.46-.46v-7.68c0-.26-.21-.46-.46-.46h-4.33c-.26,0-.46,.21-.46,.46v7.68c0,.26,.21,.46,.46,.46Z"/>
      <path class="cls-3" d="M278.1,25.23c.08,.05,.17,.08,.26,.08,.07,0,.15-.02,.22-.05,.15-.08,.25-.24,.25-.41V3.93c0-.18-.11-.35-.27-.42-.17-.08-.36-.04-.5,.08l-8.43,7.52c-.1,.09-.16,.21-.16,.35v7.68c0,.15,.08,.3,.2,.38l8.43,5.71Z"/>
      <path class="cls-3" d="M293.43,15.29c0-3.76-1.48-7.27-4.18-9.89-.55-.54-1.43-.52-1.97,.03-.54,.55-.52,1.43,.03,1.97,2.15,2.09,3.34,4.89,3.34,7.89s-1.19,5.8-3.34,7.89c-.27,.26-.42,.62-.42,1s.14,.71,.39,.97c.27,.28,.64,.42,1,.42s.7-.13,.97-.39c2.7-2.62,4.18-6.13,4.18-9.89Z"/>
      <path class="cls-3" d="M282.8,22.32c.36,0,.7-.14,.96-.39,1.83-1.75,2.84-4.11,2.84-6.64s-1.01-4.89-2.84-6.64c-.27-.26-.63-.39-.99-.39-.37,0-.72,.16-.98,.43-.26,.27-.39,.62-.38,.99,0,.37,.16,.72,.43,.98,1.28,1.22,1.98,2.87,1.98,4.63s-.7,3.41-1.98,4.63c-.27,.26-.43,.63-.43,1.01s.14,.7,.39,.96c.26,.27,.6,.42,.98,.43h.03Z"/>
    </g>
  </g>
</svg>