<?xml version="1.0" encoding="UTF-8"?>
<svg id="Capa_1" data-name="Capa 1" xmlns="http://www.w3.org/2000/svg" viewBox="0 0 624.13 31.13">
  <defs>
    <style>
      .cls-1 {
        fill: #fff;
      }

      .cls-2 {
        fill: #27224f;
        font-family: Aller, Aller;
        font-size: 27.32px;
      }

      .cls-3 {
        fill: #7b529d;
      }

      .cls-4 {
        letter-spacing: 0em;
      }

      .cls-5 {
        letter-spacing: -.02em;
      }

      .cls-6 {
        letter-spacing: 0em;
      }

      .cls-7 {
        letter-spacing: -.01em;
      }

      .cls-8 {
        letter-spacing: -.02em;
      }
    </style>
  </defs>
  <rect class="cls-1" y="0" width="624.13" height="31.05" rx="3.23" ry="3.23"/>
  <g>
    <text class="cls-2" transform="translate(193.16 24.33)"><tspan class="cls-8" x="0" y="0">F</tspan><tspan x="13.22" y="0">ormación P</tspan><tspan class="cls-7" x="151.02" y="0">r</tspan><tspan class="cls-6" x="160.77" y="0">o</tspan><tspan class="cls-5" x="176.4" y="0">f</tspan><tspan class="cls-4" x="185.85" y="0">esional</tspan></text>
    <g>
      <path class="cls-3" d="M176.25,25.13h1.9c-.16-.43-.33-.83-.45-1.25-.06-.22-.08-.47-.03-.69,.08-.35,.41-.57,.78-.58,.37,0,.68,.14,.81,.49,.35,.88,.69,1.76,.99,2.66,.2,.59-.24,1.13-.87,1.13-1.49,0-2.98,0-4.47,0-.77,0-1.17-.64-.83-1.33,.59-1.23,1.17-2.46,1.81-3.67,.37-.7,.53-1.41,.51-2.2-.04-1.89-.01-3.78-.01-5.67v-.32c-.12,.06-.21,.09-.29,.14-2.04,1.01-4.08,2.01-6.12,3.02-.39,.2-.74,.19-1.13,0-4.13-2.04-8.26-4.07-12.38-6.11-.58-.28-.7-.51-.62-1.14,.04-.28,.25-.44,.48-.56,.43-.22,.87-.43,1.31-.65,3.75-1.85,7.5-3.69,11.24-5.55,.37-.18,.71-.19,1.09,0,4.15,2.05,8.3,4.1,12.45,6.15,.59,.29,.81,.79,.52,1.27-.11,.18-.31,.34-.51,.44-1.34,.67-2.68,1.33-4.02,1.99-.19,.09-.27,.2-.26,.42,0,2.58,.01,5.16,0,7.75,0,.26-.07,.55-.19,.79-.51,1.07-1.04,2.13-1.56,3.2-.04,.08-.08,.17-.13,.29Zm3.91-15.26c-.1-.06-.15-.09-.2-.12-3.45-1.7-6.91-3.41-10.36-5.1-.11-.05-.3-.05-.41,0-3.43,1.68-6.86,3.38-10.29,5.07-.07,.04-.15,.08-.25,.13,.09,.05,.13,.08,.18,.1,3.46,1.71,6.92,3.41,10.38,5.12,.15,.07,.25,.06,.39,0,1.79-.89,3.59-1.77,5.38-2.66,.08-.04,.16-.08,.26-.13-.11-.06-.19-.1-.28-.14-1.27-.62-2.54-1.24-3.82-1.87-.11-.05-.22-.11-.32-.18-.31-.22-.43-.61-.31-.97,.12-.37,.43-.61,.82-.6,.18,0,.37,.06,.53,.14,1.74,.84,3.47,1.69,5.2,2.53,.09,.04,.23,.07,.31,.03,.92-.44,1.83-.89,2.79-1.37Z"/>
      <path class="cls-3" d="M164.91,18.18c0,.57,.02,1.14,0,1.7-.03,.64,.25,1.11,.74,1.48,.68,.53,1.48,.8,2.31,.95,1.33,.24,2.65,.18,3.93-.27,.52-.18,1.01-.42,1.43-.79,.4-.35,.61-.78,.6-1.33-.02-1.22,0-2.45,0-3.67,0-.54,.21-.85,.65-.98,.47-.14,.98,.16,1.08,.64,.03,.14,.04,.28,.04,.42,0,1.13-.03,2.25,0,3.38,.06,1.54-.68,2.59-1.92,3.37-1.04,.65-2.2,.96-3.41,1.07-1.48,.13-2.92-.01-4.3-.58-1.04-.42-1.94-1.02-2.52-2.03-.27-.47-.37-.97-.38-1.5,0-1.27,0-2.54,0-3.81,0-.37,.11-.68,.44-.88,.54-.33,1.26,0,1.3,.64,.05,.72,.01,1.45,.01,2.18,0,0,.01,0,.02,0Z"/>
    </g>
  </g>
</svg>