<?xml version="1.0" encoding="UTF-8"?>
<svg id="Capa_1" data-name="Capa 1" xmlns="http://www.w3.org/2000/svg" viewBox="0 0 624.13 31.13">
  <defs>
    <style>
      .cls-1 {
        fill: #fff;
      }

      .cls-2 {
        fill: #27224f;
        font-family: Aller, Aller;
        font-size: 27.32px;
      }

      .cls-3 {
        fill: #7b529d;
      }
    </style>
  </defs>
  <rect class="cls-1" y="0" width="624.13" height="31.05" rx="3.23" ry="3.23"/>
  <g>
    <text class="cls-2" transform="translate(254.72 24.33)"><tspan x="0" y="0">Manda fruta</tspan></text>
    <path class="cls-3" d="M232.22,5.23c-6.33,0-11.48,4.36-11.48,9.71,0,1.7,.52,3.35,1.5,4.81l-1.41,3.34c-.17,.41-.09,.89,.22,1.21,.22,.23,.51,.35,.82,.35,.13,0,.25-.02,.38-.07l3.91-1.4c1.82,.96,3.9,1.46,6.06,1.46,6.33,0,11.48-4.36,11.48-9.71s-5.15-9.71-11.48-9.71Zm0,17.17c-1.95,0-3.81-.49-5.39-1.41-.17-.1-.37-.15-.57-.15-.13,0-.26,.02-.38,.07l-1.98,.71,.66-1.56c.16-.38,.1-.81-.15-1.13-.93-1.19-1.42-2.56-1.42-3.96,0-4.11,4.14-7.46,9.23-7.46s9.23,3.35,9.23,7.46-4.14,7.46-9.23,7.46Zm5.37-10.07c.43,.45,.42,1.16-.02,1.59l-2.74,2.66c-.33,.32-.83,.41-1.26,.22l-2.94-1.35-2.19,2.12c-.22,.21-.5,.32-.78,.32s-.59-.11-.81-.34c-.43-.45-.42-1.16,.02-1.59l2.74-2.66c.33-.32,.83-.41,1.26-.22l2.94,1.35,2.19-2.12c.45-.43,1.16-.42,1.59,.02Z"/>
  </g>
</svg>