<?xml version="1.0" encoding="UTF-8"?>
<svg id="Capa_1" data-name="Capa 1" xmlns="http://www.w3.org/2000/svg" viewBox="0 0 624.13 31.13">
  <defs>
    <style>
      .cls-1 {
        fill: #fff;
      }

      .cls-2 {
        fill: #27224f;
        font-family: Aller, Aller;
        font-size: 27.32px;
      }

      .cls-3 {
        fill: #7b529d;
      }

      .cls-4 {
        letter-spacing: 0em;
      }

      .cls-5 {
        letter-spacing: 0em;
      }

      .cls-6 {
        letter-spacing: -.02em;
      }
    </style>
  </defs>
  <rect class="cls-1" y="0" width="624.13" height="31.05" rx="3.23" ry="3.23"/>
  <g>
    <text class="cls-2" transform="translate(192.95 24.32)"><tspan x="0" y="0">Estudiar p</tspan><tspan class="cls-6" x="123.29" y="0">r</tspan><tspan class="cls-4" x="133.04" y="0">o</tspan><tspan x="148.67" y="0">g</tspan><tspan class="cls-5" x="163.78" y="0">r</tspan><tspan x="173.67" y="0">amación</tspan></text>
    <g>
      <path class="cls-3" d="M169.01,12.08h0s3.9,.01,3.9,.01c.22,0,.39-.17,.39-.39V5.32c0-.22-.17-.39-.39-.39h-8.37c-.22,0-.39,.17-.39,.39v6.38c0,.22,.17,.39,.39,.39h3.9s.57-.01,.57-.01Zm-4.08-.77V5.71h7.59v5.6h-7.59Z"/>
      <path class="cls-3" d="M162.61,25.02v-6.38c0-.22-.17-.39-.39-.39h-8.37c-.22,0-.39,.17-.39,.39v6.38c0,.22,.17,.39,.39,.39h8.37c.22,0,.39-.17,.39-.39Zm-.78-.39h-7.59v-5.6h7.59v5.6Z"/>
      <path class="cls-3" d="M164.54,18.25c-.22,0-.39,.17-.39,.39v6.38c0,.22,.17,.39,.39,.39h8.37c.21,0,.39-.17,.39-.39v-6.38c0-.22-.17-.39-.39-.39h-8.37Zm7.98,6.38h-7.59v-5.6h7.59v5.6Z"/>
      <path class="cls-3" d="M175.23,18.25c-.22,0-.39,.17-.39,.39v6.38c0,.22,.17,.39,.39,.39h8.37c.21,0,.39-.17,.39-.39v-6.38c0-.22-.17-.39-.39-.39h-8.37Zm7.98,6.38h-7.59v-5.6h7.59v5.6Z"/>
      <polygon class="cls-3" points="158.26 17.71 158.83 17.71 158.83 15.58 168.44 15.58 168.44 17.71 169.01 17.71 169.01 15.58 178.62 15.58 178.62 17.71 179.19 17.71 179.19 15.02 169.01 15.02 169.01 12.09 169.01 12.08 168.44 12.08 168.44 12.09 168.44 15.02 158.26 15.02 158.26 17.71"/>
    </g>
  </g>
</svg>