<?xml version="1.0" encoding="UTF-8"?>
<svg id="Capa_1" data-name="Capa 1" xmlns="http://www.w3.org/2000/svg" viewBox="0 0 624.13 31.13">
  <defs>
    <style>
      .cls-1 {
        fill: #fff;
      }

      .cls-2 {
        fill: #27224f;
        font-family: Aller, Aller;
        font-size: 27.32px;
      }

      .cls-3 {
        fill: #7b529d;
      }
    </style>
  </defs>
  <rect class="cls-1" y="0" width="624.13" height="31.05" rx="3.23" ry="3.23"/>
  <g>
    <text class="cls-2" transform="translate(265.97 24.32)"><tspan x="0" y="0">Ubicación</tspan></text>
    <g>
      <path class="cls-3" d="M250.63,11.22c.14-.57,.21-1.16,.21-1.74,0-4.06-3.31-7.37-7.37-7.37s-7.37,3.31-7.37,7.37c0,.59,.07,1.17,.21,1.74,.2,1.2,.47,2.16,.8,2.87,.72,1.52,3.77,6.54,5.17,8.83-1.89,.24-2.77,1.05-2.77,1.82,0,.91,1.24,1.89,3.95,1.89s3.96-.98,3.96-1.89c0-.77-.88-1.58-2.77-1.82,1.4-2.29,4.45-7.31,5.17-8.83,.34-.71,.61-1.67,.8-2.87Zm-1.11-.25s0,.03,0,.04c-.18,1.08-.42,1.98-.71,2.58-.73,1.54-4.07,7.02-5.33,9.07-1.26-2.06-4.6-7.54-5.33-9.07-.29-.61-.53-1.5-.71-2.58,0-.01,0-.03,0-.04-.12-.49-.18-.99-.18-1.49,0-3.44,2.8-6.23,6.23-6.23s6.23,2.8,6.23,6.23c0,.5-.06,1-.18,1.49Z"/>
      <path class="cls-3" d="M243.47,5.33c-2.18,0-3.95,1.77-3.95,3.95s1.77,3.95,3.95,3.95,3.96-1.77,3.96-3.95-1.77-3.95-3.96-3.95Zm0,6.77c-1.55,0-2.82-1.26-2.82-2.82s1.26-2.82,2.82-2.82,2.82,1.26,2.82,2.82-1.26,2.82-2.82,2.82Z"/>
    </g>
  </g>
</svg>