<?xml version="1.0" encoding="UTF-8"?>
<svg id="Capa_1" data-name="Capa 1" xmlns="http://www.w3.org/2000/svg" viewBox="0 0 624.13 31.13">
  <defs>
    <style>
      .cls-1 {
        fill: #fff;
      }

      .cls-2 {
        fill: #27224f;
        font-family: Aller, Aller;
        font-size: 27.32px;
      }

      .cls-3 {
        fill: #7b529d;
      }

      .cls-4 {
        letter-spacing: 0em;
      }
    </style>
  </defs>
  <rect class="cls-1" y="0" width="624.13" height="31.05" rx="3.23" ry="3.23"/>
  <g>
    <text class="cls-2" transform="translate(196.51 24.33)"><tspan class="cls-4" x="0" y="0">¿</tspan><tspan x="13.2" y="0">Qué puedo estudiar?</tspan></text>
    <path class="cls-3" d="M160.46,6.59c0-.31,0-.58,0-.84,0-.31,.12-.53,.4-.68,1.4-.75,2.88-1.22,4.45-1.42,2.56-.32,5.01,.08,7.34,1.2,.09,.05,.25,.05,.34,0,1.36-.66,2.79-1.08,4.29-1.23,2.63-.27,5.13,.2,7.48,1.41,.29,.15,.42,.39,.42,.71,0,.27,0,.54,0,.86,.37,0,.73,0,1.09,0,.34,0,.69,0,1.02,.06,.51,.09,.82,.51,.82,1.03,0,5.59,0,11.18,0,16.77,0,.76-.5,1.24-1.3,1.24-4.91,0-9.82,0-14.74,0-4.41,0-8.82,0-13.24,0-.93,0-1.38-.45-1.38-1.37,0-5.46,0-10.91,0-16.37,0-.91,.45-1.36,1.36-1.36,.53,0,1.06,0,1.64,0Zm11.69,17.4c0-.16,.02-.26,.02-.36,0-5.77,0-11.53,0-17.3,0-.24-.08-.35-.29-.44-3.29-1.43-6.57-1.41-9.85,0-.21,.09-.29,.2-.29,.44,0,5.02,0,10.03,0,15.05,0,.1,0,.2,0,.32,3.6,.21,7.1,.68,10.39,2.29Zm11.71-2.29c0-.1,0-.16,0-.22,0-5.07,0-10.14,0-15.21,0-.18-.06-.27-.23-.35-3.3-1.44-6.6-1.47-9.91-.03-.22,.1-.29,.23-.29,.47,0,5.75,0,11.49,0,17.24,0,.11,0,.22,.02,.39,3.28-1.67,6.8-2.08,10.39-2.3Zm-7.91,2.57s.02,.07,.03,.1h10.88V7.91h-1.68c0,.16,0,.29,0,.43,0,4.6,0,9.2,0,13.8,0,.57-.26,.84-.83,.86-1.78,.06-3.55,.17-5.3,.51-1.04,.21-2.07,.5-3.1,.75Zm-6.28,.11s0-.02,.01-.04c-.08-.03-.16-.06-.25-.09-2.6-.85-5.3-1.08-8.01-1.24-.77-.04-.96-.22-.96-1,0-4.57,0-9.14,0-13.71,0-.13,0-.26,0-.39h-1.67V24.38h10.88Z"/>
  </g>
</svg>