<?xml version="1.0" encoding="UTF-8"?>
<svg id="Capa_1" data-name="Capa 1" xmlns="http://www.w3.org/2000/svg" viewBox="0 0 624.13 31.13">
  <defs>
    <style>
      .cls-1 {
        fill: #fff;
      }

      .cls-2 {
        fill: #27224f;
        font-family: Aller, Aller;
        font-size: 27.32px;
      }

      .cls-3 {
        fill: #7b529d;
      }
    </style>
  </defs>
  <rect class="cls-1" y="0" width="624.13" height="31.05" rx="3.23" ry="3.23"/>
  <g>
    <text class="cls-2" transform="translate(295.31 24.33)"><tspan x="0" y="0">Clima</tspan></text>
    <g>
      <path class="cls-3" d="M272.2,12.39c1.03-2.44,2.83-3.69,5.51-3.41,2.01,.21,3.72,1.74,4.17,3.69,.58,2.49-.34,4.38-2.48,5.77,.1,.07,.2,.14,.29,.21,1.39,.99,2.03,2.74,1.6,4.38-.42,1.64-1.83,2.87-3.51,3.08-.16,.02-.33,.04-.49,.04-4.63,0-9.26,.01-13.89,0-2.3,0-4.26-1.6-4.8-3.84-.59-2.45,.73-4.94,3.1-5.83,.23-.09,.3-.19,.3-.43,0-3.13,2.51-5.7,5.64-5.73,1.71-.02,3.16,.62,4.33,1.88,.05,.06,.1,.12,.16,.17,.01,.01,.03,.01,.05,.02Zm1.25,1.43c2.55-.12,4.22,1.03,5.02,3.43,1.56-.55,2.49-2.49,2.04-4.22-.48-1.8-2.29-2.95-4.13-2.61-1.67,.3-3.07,1.94-2.92,3.4Z"/>
      <path class="cls-3" d="M282.12,17.27c.16,.08,.35,.13,.49,.23,.72,.55,1.42,1.12,2.13,1.69,.37,.3,.42,.73,.16,1.05-.26,.32-.68,.35-1.04,.07-.72-.56-1.43-1.13-2.15-1.71-.28-.23-.36-.5-.26-.8,.1-.29,.36-.48,.68-.53Z"/>
      <path class="cls-3" d="M279.12,4.75c-.11,.76-.23,1.51-.34,2.27-.03,.21-.05,.42-.1,.63-.08,.38-.43,.63-.79,.57-.37-.05-.66-.39-.61-.76,.13-.97,.27-1.94,.44-2.9,.09-.5,.64-.72,1.06-.45,.23,.15,.34,.36,.34,.64Z"/>
      <path class="cls-3" d="M269.73,7.4c.15,.07,.31,.11,.44,.21,.74,.57,1.46,1.16,2.19,1.74,.25,.2,.32,.46,.25,.76-.07,.28-.27,.48-.55,.5-.19,.01-.42-.03-.57-.14-.76-.57-1.5-1.17-2.24-1.77-.25-.2-.32-.54-.21-.82,.11-.27,.37-.43,.68-.47Z"/>
      <path class="cls-3" d="M283.12,12.28c-.37,0-.66-.22-.73-.54-.08-.37,.09-.69,.46-.84,.66-.27,1.32-.52,1.98-.78,.23-.09,.45-.19,.68-.26,.36-.11,.73,.06,.87,.4,.14,.34,.03,.75-.32,.9-.92,.39-1.86,.74-2.79,1.1-.05,.02-.12,.02-.15,.02Z"/>
      <path class="cls-3" d="M273.34,6.15c.08-.32,.29-.61,.56-.68,.32-.09,.67,.02,.8,.32,.24,.53,.45,1.07,.64,1.62,.09,.26-.1,.59-.37,.73-.28,.15-.67,.12-.81-.14-.31-.6-.55-1.23-.82-1.85Z"/>
      <path class="cls-3" d="M283.99,14.45c.41,.07,.94,.13,1.46,.24,.36,.07,.54,.4,.49,.78-.04,.33-.32,.61-.65,.58-.58-.06-1.15-.14-1.72-.26-.34-.07-.52-.44-.46-.78,.07-.36,.36-.57,.89-.56Z"/>
      <path class="cls-3" d="M282.39,6.76c.2,.15,.42,.26,.55,.44,.16,.21,.14,.49-.02,.71-.32,.43-.65,.85-1,1.25-.25,.29-.66,.3-.94,.07-.28-.23-.35-.63-.13-.94,.31-.42,.63-.84,.98-1.23,.12-.13,.32-.18,.55-.31Z"/>
    </g>
  </g>
</svg>