<?xml version="1.0" encoding="UTF-8"?>
<svg id="Capa_1" data-name="Capa 1" xmlns="http://www.w3.org/2000/svg" viewBox="0 0 624.13 31.13">
  <defs>
    <style>
      .cls-1 {
        fill: #fff;
      }

      .cls-2 {
        fill: #27224f;
        font-family: Aller, Aller;
        font-size: 27.32px;
      }

      .cls-3 {
        fill: #7b529d;
      }

      .cls-4 {
        letter-spacing: -.02em;
      }
    </style>
  </defs>
  <rect class="cls-1" x="0" y="0" width="624.13" height="31.05" rx="3.23" ry="3.23"/>
  <g>
    <text class="cls-2" transform="translate(293.94 24.32)"><tspan class="cls-4" x="0" y="0">F</tspan><tspan x="13.22" y="0">echa</tspan></text>
    <g>
      <path class="cls-3" d="M265.3,18.04h1.83v5.74c0,.17,.14,.31,.31,.31h1.61c.17,0,.31-.14,.31-.31V15.02c0-.17-.14-.31-.31-.31h-1.37c-.17,0-.31,.14-.31,.31,0,.02,0,.09-.05,.26-.06,.21-.15,.38-.26,.5-.17,.18-.4,.3-.68,.37-.2,.04-.56,.08-1.08,.1-.17,0-.3,.15-.3,.31v1.17c0,.17,.14,.31,.31,.31Z"/>
      <path class="cls-3" d="M271.22,23.43c.59,.49,1.35,.74,2.25,.74,1.13,0,1.99-.36,2.57-1.07,.56-.69,.85-1.48,.85-2.36,0-1.02-.31-1.81-.91-2.35-.59-.54-1.3-.81-2.1-.81-.4,0-.73,.05-1.02,.16-.05,.02-.09,.04-.15,.06l.08-1.02h2.86c.17,0,.31-.14,.31-.31v-1.46c0-.17-.14-.31-.31-.31h-4.69c-.17,0-.3,.13-.31,.29l-.33,4.83c0,.08,.02,.17,.08,.23,.06,.06,.14,.1,.22,.1l1.72,.07c.12,0,.24-.06,.29-.17,.1-.19,.24-.32,.43-.38,.12-.04,.27-.06,.44-.06,.34,0,.56,.1,.71,.32,.17,.25,.26,.57,.26,.95s-.09,.7-.27,.94c-.16,.22-.39,.32-.72,.32-.28,0-.48-.07-.61-.21-.15-.16-.25-.39-.31-.7-.03-.15-.16-.26-.31-.26h-1.71c-.09,0-.17,.04-.23,.1-.06,.06-.09,.15-.08,.24,.07,.9,.4,1.62,1,2.12Z"/>
      <path class="cls-3" d="M280.4,5.94h-.77c-.07,0-.13,.01-.19,.04V3.4c0-.85-.7-1.55-1.55-1.55s-1.55,.7-1.55,1.55v2.55s-.06,0-.09,0h-10.64s-.08,0-.12,.02V3.4c0-.85-.7-1.55-1.55-1.55s-1.55,.7-1.55,1.55v2.57s-.1-.03-.16-.03h-.77c-1.47,0-2.67,1.2-2.67,2.67V25.64c0,1.47,1.2,2.67,2.67,2.67h18.93c1.47,0,2.67-1.2,2.67-2.67V8.61c0-1.47-1.2-2.67-2.67-2.67Zm-3.19-2.54c0-.38,.31-.68,.68-.68s.68,.31,.68,.68v4.67c0,.38-.31,.68-.68,.68s-.68-.31-.68-.68V3.4Zm-13.94,0c0-.38,.31-.68,.68-.68s.68,.31,.68,.68v4.67c0,.38-.31,.68-.68,.68s-.68-.31-.68-.68V3.4Zm18.87,22.24c0,.95-.78,1.73-1.73,1.73h-18.93c-.95,0-1.73-.78-1.73-1.73V8.61c0-.95,.78-1.73,1.73-1.73h.3v.92c0,1.19,.97,2.16,2.16,2.16s2.16-.97,2.16-2.16v-.92h9.7v.92c0,1.19,.97,2.16,2.16,2.16s2.16-.97,2.16-2.16v-.92h.3c.95,0,1.73,.78,1.73,1.73V25.64Z"/>
      <path class="cls-3" d="M280.76,12.72h-19.57c-.26,0-.47,.21-.47,.47v11.57c0,.89,.73,1.62,1.62,1.62h17.27c.89,0,1.62-.73,1.62-1.62V13.2c0-.26-.21-.47-.47-.47Zm-.47,12.04c0,.37-.3,.68-.68,.68h-17.27c-.37,0-.68-.3-.68-.68V13.67h18.63v11.09Z"/>
    </g>
  </g>
</svg>