<?xml version="1.0" encoding="UTF-8"?>
<svg id="Capa_1" data-name="Capa 1" xmlns="http://www.w3.org/2000/svg" viewBox="0 0 624.13 31.13">
  <defs>
    <style>
      .cls-1 {
        fill: #fff;
      }

      .cls-2 {
        fill: #27224f;
        font-family: Aller, Aller;
        font-size: 27.32px;
      }

      .cls-3 {
        fill: #7b529d;
      }

      .cls-4 {
        letter-spacing: 0em;
      }
    </style>
  </defs>
  <rect class="cls-1" x="0" y="0" width="624.13" height="31.05" rx="3.23" ry="3.23"/>
  <g>
    <text class="cls-2" transform="translate(300.86 24.32)"><tspan x="0" y="0">Ho</tspan><tspan class="cls-4" x="34.5" y="0">r</tspan><tspan x="44.39" y="0">a</tspan></text>
    <g>
      <path class="cls-3" d="M279.79,15.07c-.16-1.04-.98-1.86-2.02-2.02v-4.73h-.77v4.73c-1.16,.18-2.05,1.19-2.05,2.4,0,1.34,1.09,2.44,2.44,2.44,1.21,0,2.22-.89,2.4-2.05h6.27v-.77h-6.27Z"/>
      <path class="cls-3" d="M277.39,2.82c-6.98,0-12.64,5.66-12.64,12.64s5.66,12.64,12.64,12.64,12.63-5.66,12.63-12.64-5.66-12.64-12.63-12.64Zm0,23.65c-6.08,0-11.01-4.93-11.01-11.01s4.93-11.01,11.01-11.01,11.01,4.93,11.01,11.01-4.93,11.01-11.01,11.01Z"/>
    </g>
  </g>
</svg>